<svg class="w-10 h-10 text-white" xmlns="http://www.w3.org/2000/svg" viewBox="0 0 16 16" id="tinder"><path fill="currentColor" stroke="none" stroke-linecap="round" stroke-linejoin="round" stroke-miterlimit="10" d="M3.588 13.923c-1.615-1.675-1.424-4.42.517-7.43.353-.548.718-1.045 1.14-1.551l.35-.421.034.376c.053.589.131.911.308 1.28.111.231.294.48.373.552.061.056.032.087.338-.072 2.016-1.125 2.224-2.961 2.11-4.541-.04-.464-.14-.98-.264-1.36C8.448.61 8.421.495 8.436.5c.014.005.265.248.558.54 2.796 2.79 4.308 5.713 4.505 8.703.061 3.427-1.849 5.254-4.629 5.643-2.373.375-4.012-.19-5.282-1.463z"></path>
</svg>
